# xmcd
#
# Track frame offsets:
#	150
#	13442
#	32480
#	47350
#	64360
#	78850
#	92402
#	104782
#	122475
#	136885
#
# Disc length: 2040 seconds
#
# Revision: 0
# Processed by: cddbd v1.5.2PL0 Copyright (c) Steve Scherf et al.
# Submitted via: EasyCDDAExtractor 10.2.0.1
#
DISCID=7c07f60a
DTITLE=Ernie Rowell - In His Will
DYEAR=1997
DGENRE=Gospel
TTITLE0=Family Man
TTITLE1=Safe At Home
TTITLE2=The Longer I Live
TTITLE3=Witness Protection Program
TTITLE4=Let The Lord Lead
TTITLE5=Here I Am
TTITLE6=A Helping Hand
TTITLE7=Ageing Gracefully
TTITLE8=Cross Examination
TTITLE9=Where Did The Time Go
EXTD=
EXTT0=
EXTT1=
EXTT2=
EXTT3=
EXTT4=
EXTT5=
EXTT6=
EXTT7=
EXTT8=
EXTT9=
PLAYORDER=
